<svg width="32" height="32" viewBox="0 0 32 32" fill="none" xmlns="http://www.w3.org/2000/svg">
  <!-- Graduation cap -->
  <path d="M16 4L4 10L16 16L28 10L16 4Z" fill="#3B82F6"/>
  <path d="M6 12V18C6 20 10 22 16 22C22 22 26 20 26 18V12" stroke="#3B82F6" stroke-width="2" stroke-linecap="round"/>
  <!-- Book pages -->
  <path d="M28 12V24C28 25 27 26 26 26H20C18 26 16 27 16 28C16 27 14 26 12 26H6C5 26 4 25 4 24V12" stroke="#1E40AF" stroke-width="1.5" stroke-linecap="round"/>
  <!-- Accent dot -->
  <circle cx="29" cy="11" r="2" fill="#EF4444"/>
</svg>
